<svg xmlns="http://www.w3.org/2000/svg" xmlns:xlink="http://www.w3.org/1999/xlink" viewBox="0 0 243.69 76.95"><defs><style>.a{fill:none;}.b{clip-path:url(#a);}.c{fill:#fff;}</style><clipPath id="a" transform="translate(-2.25 -6.05)"><rect class="a" x="2.25" y="6" width="244.9" height="77"/></clipPath></defs><g class="b"><path class="c" d="M5.49,34.42c2.69,2.91,8.27,1.55,11.58.82A84.73,84.73,0,0,0,35.5,28.6,98.08,98.08,0,0,0,53.82,17.41c3.37-2.64,8.44-6.67,8.78-11.36a17.93,17.93,0,0,0-3.08.79C33.26,25.91,22.8,58.94,2.25,83l3.13-.84a24.33,24.33,0,0,1,2.49-7.54c1.6-3.13,4-5.1,6.66-7.26,5.19-4.14,10.17-8.54,15-13.07A322.31,322.31,0,0,0,56.66,25.48c0,.06-1.07.15-1.18.18C48,27.5,42.62,35.05,38.26,40.91a80.63,80.63,0,0,0-8,12.85c-1.25,2.57-3.13,6.34-2.14,9.27.06.17,1.49-.25,1.6-.28,7.09-1.94,12.6-6.52,19.15-9.61L46,53.85A11.59,11.59,0,0,1,46.52,56l.06,0c2.73,0,8.34-.34,9.17-3.68.68-2.78-2.49-5.6-5.12-5.14A7.89,7.89,0,0,0,46.21,49a6.49,6.49,0,0,0-1.3,2.39,13.67,13.67,0,0,0-.55,2.44c0,.24,2.12.65,2.17.67,6,1.06,11.56-4.5,16-7.39l-3.08.78c-.55,1.8-2.06,5.93.17,7.24,1.35.79,3.85-.3,5.14-.76,4.64-1.62,9.16-6.88,10.23-11.63-.06.27-2.87.2-3.12.84-1.78,4.4-.29,11.28-4.28,14.52l3.09-.79c.11-1.35.24-2.88,1.37-3.8-1.81.3-2.24.47-1.28.53A6.21,6.21,0,0,1,72,54.4a15.79,15.79,0,0,1,1.85.9c2.22,1.2,4.28,2.78,6.76,3.43.85.22,2.56-1,3-.88-3.62-1-6.42-4.3-10.18-4.72a9,9,0,0,0-3.68.8c-1.77.65-2,2.57-2.15,4.24a18.4,18.4,0,0,0,3.08-.79C74.73,54.07,73.2,47.25,75,42.76l-3.12.84c-.93,4.07-4.06,7.62-7.36,10-.34.25-.7.47-1.06.69-.82.49-1.34.12-.07.16a1.71,1.71,0,0,1-1.45-1c-.93-1.79.11-4.61.65-6.34,0,.1-2.71.54-3.08.78C56,50.15,52,55,47.48,53c-.45-.19,1.1-3.74,1.35-4.15A3.89,3.89,0,0,1,50,47.64c-1.48,1-1.63,0-.11.72a5.17,5.17,0,0,1,2.75,3.71,3.06,3.06,0,0,1-.45,2.15c-.1.17-.69.87-.93.9-2,.24-1.49-.93-2.16-2.11-.18-.32-2.62.57-2.93.71-5.56,2.63-10.49,7.11-16.48,8.75l1.6-.28c-.86-2.54.53-5.62,1.51-7.91a68.16,68.16,0,0,1,6.45-11.21A92.19,92.19,0,0,1,48.07,32,51,51,0,0,1,52,28.28c.62-.52,1.26-1,1.92-1.45.5-.34,2.49-1.09.82-.68l-1.19.17A328,328,0,0,1,25.77,55.71q-7.26,6.78-15,13a21.28,21.28,0,0,0-5.56,6A22.73,22.73,0,0,0,2.25,83c0-.09,2.8-.45,3.13-.84,20.52-24,31-57,57.17-76l-3.08.78c-.28,4-4,7.27-6.8,9.69a83,83,0,0,1-14.88,10A85.23,85.23,0,0,1,20,34.21c-3.19.89-8.76,2.23-11.41-.63-.46-.5-2.93,1.05-3.13.84" transform="translate(-2.25 -6.05)"/><path class="c" d="M67.63,36.06c5,.34,9.19-2.51,14-2.7,1,0,2.38-.86,3-.88-4.76.18-9.31,3-14,2.7-.94-.07-2.44.92-3,.88" transform="translate(-2.25 -6.05)"/><path class="c" d="M8.43,55.84c13-5.86,26-12.82,40.19-15,.41-.06,3.41-1,2.16-.79-16,2.41-30.52,9.76-45.09,16.34-.57.26.51.06.61,0a10.6,10.6,0,0,0,2.13-.62" transform="translate(-2.25 -6.05)"/><path class="c" d="M140.44,53.31c-1.86,2.77-4,8.69,1.07,9.44a8.92,8.92,0,0,0,8-3.78c2.19-3.34,1.35-7-2.94-6.59-3.25.3-7.06,1.67-9.3,4.12-.15.16.43,0,.44,0a47.15,47.15,0,0,0,6-1.51,8.91,8.91,0,0,1,5.37-.27,11.36,11.36,0,0,1-.55,2.7,19.86,19.86,0,0,1-2.11,4.5l3.13-.84a29.87,29.87,0,0,1,3.06-4.86c1.58-2,3.18-3.31,5.69-2.15a17.1,17.1,0,0,1,3,2.49,26.67,26.67,0,0,1-2.5,5.36c.32-.52,2.65-.07,3.13-.84a30,30,0,0,0,2.7-5.94l-.07,0c-2.05-.2-3-2.11-5.14-2.46a10.46,10.46,0,0,0-4.49.67c-4.21,1.24-6.62,4.86-8.55,8.59.25-.47,2.71-.1,3.13-.84a17.46,17.46,0,0,0,2.7-8.1l-.06,0a26.89,26.89,0,0,0-5.57.85c-.85.21-1.69.46-2.52.72l-1.21.37c-.33.11-3,1.27-2,.22,1.8-1.75,6-3.31,6.66.33.29,1.63-.65,3.5-1.5,4.81A6.19,6.19,0,0,1,144.27,62c.75-.08.83-.11.24-.12a3.37,3.37,0,0,1-1.35-.41c-3.52-1.76-1.06-6.79.4-9-.35.53-2.61.07-3.12.84" transform="translate(-2.25 -6.05)"/><path class="c" d="M167.32,50.85c0-1.09-.15-2.17-.23-3.26,0-.37-.2-2.29.1-2.41l-2.7.73c.14,0,.66.75.78.92.31.46,3-.95,3.13-.83-.56-.82-.84-1.07-1.83-.86-.74.16-2.36.27-2.59,1.2-.4,1.68.19,3.65.21,5.35,0,0,3.13-.36,3.13-.84" transform="translate(-2.25 -6.05)"/><path class="c" d="M182.43,52.47a12.06,12.06,0,0,0-.54-4.31c-.11-.3-2.79.61-3.08.78-2.9,1.67-7.4,4-8.32,7.62-.58,2.2,1.81,3.35,3.53,3.82,4.91,1.34,12.43-.21,16.18-3.72,1.62-1.52,3.37-5.92.45-7-2.53-1-6.71,1.45-8.54,3-2.41,2-5.66,7-1,8.54,3.87,1.27,8.55-.25,12.27-1.43l1.21-.39c1.9-.63-1.15,0-1.64.18-3.1,1-7.69,2.34-10.36-.28-2.38-2.33.78-5.83,2.5-7.35a12.68,12.68,0,0,1,1.64-1.19c.5-.32.08-.45,1-.08,1.1.43,1.24,1.93,1.2,2.91a6.52,6.52,0,0,1-3.14,5c-3,2-8.54,2.23-11.4-.17-4.17-3.48,5.31-8.86,7.37-10l-3.08.78a12.14,12.14,0,0,1,.54,4.32c0-.05,3.13-.36,3.13-.84" transform="translate(-2.25 -6.05)"/><path class="c" d="M198.62,59c.23-4,4.4-8.66,8.31-9.59l-1.18.17c1.26,3.77-1.87,7.11-4.61,9.24a19.2,19.2,0,0,1-2.23,1.43,1.65,1.65,0,0,1-2.17.2,11.1,11.1,0,0,1,1-1.8c1.47-2.34,2.61-2.39,4.93-2.19,6.29.54,12.15,2.86,18.08-.65l-3.09.79c.95,7.86,13.26,2.36,16.58-.79l-3.08.79c2.21,5,8.72,4.08,13.06,3.07,1-.24,3-1,.76-.5-3.81.89-8.89.65-10.69-3.41-.12-.27-2.83.55-3.08.79-3.06,2.9-9.68,5.31-10.42-.79a11.84,11.84,0,0,0-3.08.79c-1.86,1.09-5.14.22-7.44-.21a27.57,27.57,0,0,0-6.94-.83c-4.58.32-8.21,2.06-9.95,6.49l.06,0a20.29,20.29,0,0,0,9.68-3.18c3.21-2,7.18-5.95,5.8-10.1,0-.14-1.11.16-1.19.18-5.23,1.23-11.85,4.82-12.2,10.92,0-.12,3.1-.31,3.13-.84" transform="translate(-2.25 -6.05)"/><path class="c" d="M98.89,70.88c-1.45,1.39-2.33,2.53-4.33,1.41A4.4,4.4,0,0,1,93,70.58a8.44,8.44,0,0,1-.7-4.41c.17-4.23,1.76-8.45,3.27-12.35a192.36,192.36,0,0,1,11.83-24A50.13,50.13,0,0,1,115,19.48,21.89,21.89,0,0,1,117,17.59c.32-.25.65-.47,1-.69,1-.62,1.26-.09-.43-.08,1.53,0,2.15,1.74,2.44,2.94a23.56,23.56,0,0,1,.08,7.77c-.32,3.29-.78,6.57-1.31,9.82A126.77,126.77,0,0,1,114,57c-2.47,7.46-5.86,14.77-10.84,20.91l3.13-.84c3.37-9.42,7.08-19.44,13.35-27.36,1.68-2.12,6.82-7.14,6.94-1.58.08,4-2.14,7.9-1.83,12a9.11,9.11,0,0,0,2-.4c5.38-1.65,7.65-7,12.4-9.56l-3.09.78c-.19,4.74-2.76,8.84-4.85,13,.17-.33,2.58-.36,3.08-.79,3.38-2.92,6.12-6.49,9.72-9.18-.43.32-2.3.19-3,.74-3.6,2.68-6.33,6.25-9.72,9.18l3.08-.79c2.09-4.12,4.67-8.22,4.86-13a17.93,17.93,0,0,0-3.08.79,19.85,19.85,0,0,0-4.91,4.18c-1.46,1.56-3.22,3.95-5.36,4.61l2-.4c-.34-4.44,2.71-9,1.67-13.36-.8-3.34-7.74.05-9.32,1.06-4.76,3-7.69,9.27-10.11,14.13a155,155,0,0,0-7,16.82c.11-.3,2.7-.31,3.13-.84,8.4-10.36,12.42-23.85,14.95-36.75,1.2-6.11,2.38-12.61,2.22-18.85-.07-2.72-.73-6.09-4.09-5.44-7.16,1.37-11.78,8.69-15.09,14.62a204.12,204.12,0,0,0-11.83,24c-1.81,4.59-4.07,10.27-3.08,15.3,1.29,6.59,9.46,3.16,12.55.2-.33.31-2.39.12-3,.73" transform="translate(-2.25 -6.05)"/></g></svg>